<svg xmlns:rdf="http://www.w3.org/1999/02/22-rdf-syntax-ns#" xmlns="http://www.w3.org/2000/svg" height="500" width="500" version="1.1" xmlns:cc="http://creativecommons.org/ns#" xmlns:dc="http://purl.org/dc/elements/1.1/">
 <g transform="translate(0,-552.36217)">
  <rect height="100" width="100" stroke="#000" stroke-dasharray="none" x="63.5" y="628.86" stroke-miterlimit="4" stroke-width="14" fill="#d2d2d2"/>
  <rect height="100" width="100" stroke="#000" stroke-dasharray="none" x="203.5" y="628.86" stroke-miterlimit="4" stroke-width="14" fill="#d2d2d2"/>
  <rect height="100" width="100" stroke="#000" stroke-dasharray="none" x="203.5" y="858.86" stroke-miterlimit="4" stroke-width="14" fill="#d2d2d2"/>
  <rect height="100" width="100" stroke="#000" stroke-dasharray="none" x="343.5" y="748.86" stroke-miterlimit="4" stroke-width="14" fill="#d2d2d2"/>
  <g stroke-linejoin="miter" stroke="#000" stroke-linecap="butt" stroke-dasharray="none" stroke-miterlimit="4" stroke-width="14" fill="none">
   <path d="m164.73,680.55,38.075,0.1505m100.43,0.0753,20.491,0.0752-1.0277,231.23-21.068,0"/>
   <path d="m323,802.36,22.415-0.0765m98.883-0.15303,34.135-0.0765"/>
   <path d="m183.96,125.92,0-81.188-152.1,0,0,84.271,30.831-0.51385" transform="translate(0,552.36217)"/>
  </g>
  <g fill="#000">
   <path style="" d="m100.53,693.01,11.953,0,0-33.926-12.27,2.5312,0-9.2109,12.199-2.5312,12.867,0,0,43.137,11.953,0,0,9.3516-36.703,0,0-9.3516"/>
  </g>
  <g fill="#000">
   <path style="" d="m250.47,692.41,23.098,0,0,9.9492-38.145,0,0-9.9492,19.16-16.91c1.7109-1.5468,2.9765-3.0586,3.7969-4.5352,0.82028-1.4765,1.2304-3.0117,1.2305-4.6055-0.00002-2.4609-0.83206-4.4414-2.4961-5.9414-1.6406-1.5-3.832-2.25-6.5742-2.25-2.1094,0.00004-4.418,0.45707-6.9258,1.3711-2.5078,0.89067-5.1914,2.2266-8.0508,4.0078v-11.531c3.0469-1.0078,6.0586-1.7695,9.0352-2.2852,2.9765-0.53901,5.8945-0.80854,8.7539-0.8086,6.2812,0.00006,11.156,1.3829,14.625,4.1484,3.4922,2.7657,5.2382,6.6211,5.2383,11.566-0.00004,2.8594-0.73832,5.5313-2.2148,8.0156-1.4766,2.461-4.5821,5.7656-9.3164,9.9141l-11.215,9.8438"/>
  </g>
  <g fill="#000">
   <path style="" d="m263.05,908.04c3.539,0.91409,6.2226,2.5078,8.0508,4.7812,1.8515,2.25,2.7773,5.1211,2.7773,8.6133-0.00004,5.2031-1.9922,9.1641-5.9766,11.883-3.9844,2.6953-9.7969,4.043-17.438,4.043-2.6953,0-5.4024-0.22265-8.1211-0.66797-2.6953-0.42187-5.3672-1.0664-8.0156-1.9336v-10.441c2.5312,1.2656,5.039,2.2266,7.5234,2.8828,2.5078,0.63282,4.9687,0.94922,7.3828,0.94922,3.5859,0,6.3281-0.62109,8.2266-1.8633,1.9218-1.2422,2.8828-3.0234,2.8828-5.3438-0.00003-2.3906-0.98441-4.1953-2.9531-5.4141-1.9453-1.2422-4.8282-1.8633-8.6484-1.8633h-5.4141v-8.7188h5.6953c3.3984,0.00003,5.9297-0.52731,7.5938-1.582,1.664-1.0781,2.4961-2.707,2.4961-4.8867-0.00003-2.0156-0.80863-3.5742-2.4258-4.6758-1.6172-1.1015-3.9024-1.6523-6.8555-1.6523-2.1797,0.00004-4.3828,0.24613-6.6094,0.73828-2.2266,0.49223-4.4414,1.2188-6.6445,2.1797v-9.9141c2.6719-0.74995,5.3203-1.3124,7.9453-1.6875,2.625-0.37495,5.2031-0.56245,7.7344-0.5625,6.8203,0.00005,11.918,1.125,15.293,3.375,3.3984,2.2266,5.0976,5.5899,5.0976,10.09-0.00004,3.0703-0.80863,5.5899-2.4258,7.5586-1.6172,1.9453-4.0078,3.3164-7.1719,4.1133"/>
  </g>
  <g fill="#000">
   <path style="" d="m392.99,781.02-14.836,21.973,14.836,0,0-21.973m-2.25-11.145,15.047,0,0,33.117,7.4883,0,0,9.8086-7.4883,0,0,9.5625-12.797,0,0-9.5625-23.273,0,0-11.602,21.023-31.324"/>
  </g>
 </g>
</svg>
