<?xml version="1.0" standalone="no"?>
<!DOCTYPE svg PUBLIC "-//W3C//DTD SVG 20010904//EN"
 "http://www.w3.org/TR/2001/REC-SVG-20010904/DTD/svg10.dtd">
<svg version="1.0" xmlns="http://www.w3.org/2000/svg"
 width="700.000000pt" height="700.000000pt" viewBox="0 0 700.000000 700.000000"
 preserveAspectRatio="xMidYMid meet">
<metadata>
Created by potrace 1.11, written by Peter Selinger 2001-2013
</metadata>
<g transform="translate(0.000000,700.000000) scale(0.100000,-0.100000)"
fill="#000000" stroke="none">
<path d="M523 6472 l-173 -2 -1 -243 c0 -133 0 -384 0 -557 1 -173 1 -374 1
-446 l0 -130 220 3 220 4 0 -335 0 -336 799 0 799 0 1 323 c0 177 0 329 0 338
1 14 22 16 181 15 l180 0 0 -338 0 -338 799 0 799 0 0 330 c0 182 2 334 6 337
3 4 22 7 41 8 26 2 35 -2 36 -14 1 -33 -3 -1380 -6 -1976 -2 -341 -4 -718 -4
-837 l-1 -218 -35 0 c-31 0 -35 3 -36 28 0 15 0 176 0 357 0 182 -2 337 -5
346 -4 15 -75 16 -799 16 l-795 0 0 -798 0 -799 799 0 800 0 0 298 c0 163 0
311 0 328 l1 31 130 -2 c81 0 131 3 133 10 2 5 4 348 6 760 2 808 0 775 53
769 13 -1 26 -3 31 -3 4 -1 7 -147 7 -326 l0 -325 799 0 799 0 0 328 0 327
183 1 c101 1 190 2 197 3 10 1 12 25 10 98 l-3 97 -192 -2 -193 -2 -1 48 c0
26 0 192 -1 369 0 291 -2 323 -16 327 -10 3 -369 5 -799 4 l-783 0 0 -374 0
-374 -44 0 -43 0 4 850 4 850 -140 0 -141 0 -1 28 c0 15 0 171 0 347 0 176 -2
327 -5 337 -4 15 -69 16 -799 16 l-795 0 0 -365 0 -364 -37 3 -38 3 0 583 0
582 -25 0 c-963 3 -1997 4 -2127 2z m1952 -682 l0 -485 -42 -1 c-37 -1 -43 1
-44 20 0 11 0 173 -1 358 0 304 -2 338 -17 342 -9 3 -368 5 -798 4 l-783 0 0
-364 c0 -340 -1 -364 -17 -365 -89 -5 -223 -5 -224 0 -3 11 -5 966 -3 971 1 3
436 5 966 5 l963 0 0 -485z"/>
</g>
</svg>
